<svg xmlns="http://www.w3.org/2000/svg" xmlns:svg="http://www.w3.org/2000/svg" xmlns:xlink="http://www.w3.org/1999/xlink" id="svg53" width="1318" height="1200" version="1.1"><metadata id="metadata57"/><defs id="defs31"><linearGradient id="a" x1="-301.793" x2="652.199" y1="-587.425" y2="666.945" gradientTransform="matrix(-1.2400442,0,0,0.97962373,834.817,0)" gradientUnits="userSpaceOnUse"><stop id="stop2" offset="0%" stop-color="#FF52C1"/><stop id="stop4" offset="4.09%" stop-color="#F952C5"/><stop id="stop6" offset="100%" stop-color="#9952FF" stop-opacity="0"/></linearGradient><linearGradient id="b" x1="-433.941" x2="662.421" y1="-252.966" y2="1250.221" gradientTransform="matrix(-1.9568484,0,0,-0.98130827,1325.5654,1759.6822)" gradientUnits="userSpaceOnUse"><stop id="stop9" offset="0%" stop-color="#FF52C1"/><stop id="stop11" offset="4.09%" stop-color="#F952C5"/><stop id="stop13" offset="100%" stop-color="#9952FF" stop-opacity="0"/></linearGradient><linearGradient id="c" x1="761.5" x2="617.873" y1="633.579" y2="442.067" gradientTransform="matrix(1.3380787,0,0,1.3380787,-238.00744,-190.33834)" gradientUnits="userSpaceOnUse"><stop id="stop16" offset="0%" stop-color="#FF52C1"/><stop id="stop18" offset="100%" stop-color="#9952FF"/></linearGradient><linearGradient id="d" x1=".217" x2="1.459" y1=".05" y2="1.456"><stop id="stop21" offset="0%" stop-color="#FF52C1"/><stop id="stop23" offset="100%" stop-color="#9952FF"/></linearGradient><linearGradient id="e" x1="73.356" x2="118.607" y1="709.924" y2="773.999" gradientTransform="matrix(1.2514204,1.2514204,-1.2514204,1.2514204,903.5095,-128.71236)" gradientUnits="userSpaceOnUse"><stop id="stop26" offset="0%" stop-color="#FF52C1"/><stop id="stop28" offset="100%" stop-color="#9952FF"/></linearGradient><linearGradient id="linearGradient59" x1="1097.109" x2="1144.297" y1="691.772" y2="745.195" gradientTransform="translate(176.75917,-991.00561)" gradientUnits="userSpaceOnUse" xlink:href="#d"/><linearGradient id="linearGradient61" x1="1263.739" x2="1333.28" y1="78.401" y2="157.129" gradientTransform="translate(-301.53073,-935.15557)" gradientUnits="userSpaceOnUse" xlink:href="#d"/><linearGradient id="linearGradient63" x1="925.565" x2="965.303" y1="49.229" y2="94.216" gradientTransform="translate(-228.75483,-679.51701)" gradientUnits="userSpaceOnUse" xlink:href="#d"/><linearGradient id="linearGradient65" x1="694.565" x2="734.303" y1="172.229" y2="217.216" gradientTransform="translate(-74.12236,-552.20121)" gradientUnits="userSpaceOnUse" xlink:href="#d"/><linearGradient id="linearGradient67" x1="1232.207" x2="1253.317" y1="598.372" y2="622.271" gradientTransform="translate(66.206082,-1052.2044)" gradientUnits="userSpaceOnUse" xlink:href="#d"/><linearGradient id="linearGradient61-0" x1="1263.739" x2="1333.28" y1="78.401" y2="157.129" gradientTransform="translate(-329.35088,511.25115)" gradientUnits="userSpaceOnUse" xlink:href="#d"/><linearGradient id="linearGradient61-07" x1="1263.739" x2="1333.28" y1="78.401" y2="157.129" gradientTransform="translate(-1145.8527,-63.324211)" gradientUnits="userSpaceOnUse" xlink:href="#d"/><linearGradient id="linearGradient67-4" x1="1232.207" x2="1253.317" y1="598.372" y2="622.271" gradientTransform="translate(-699.14844,-392.54986)" gradientUnits="userSpaceOnUse" xlink:href="#d"/><linearGradient id="linearGradient67-1" x1="1232.207" x2="1253.317" y1="598.372" y2="622.271" gradientTransform="matrix(2.6747369,0,0,2.6747369,-1995.5689,-1489.9506)" gradientUnits="userSpaceOnUse" xlink:href="#d"/><linearGradient id="c-5" x1="761.5" x2="617.873" y1="633.579" y2="442.067" gradientTransform="matrix(0.59430546,0,0,0.59430546,685.77411,639.90747)" gradientUnits="userSpaceOnUse"><stop id="stop16-1" offset="0%" stop-color="#FF52C1"/><stop id="stop18-2" offset="100%" stop-color="#9952FF"/></linearGradient><linearGradient id="c-5-2" x1="761.5" x2="617.873" y1="633.579" y2="442.067" gradientTransform="matrix(0.79715273,0,0,0.79715273,410.78092,-240.21293)" gradientUnits="userSpaceOnUse"><stop id="stop16-1-5" offset="0%" stop-color="#FF52C1"/><stop id="stop18-2-3" offset="100%" stop-color="#9952FF"/></linearGradient><linearGradient id="c-5-9" x1="761.5" x2="617.873" y1="633.579" y2="442.067" gradientTransform="matrix(0.79715273,0,0,0.79715273,422.44461,-146.9032)" gradientUnits="userSpaceOnUse"><stop id="stop16-1-1" offset="0%" stop-color="#FF52C1"/><stop id="stop18-2-5" offset="100%" stop-color="#9952FF"/></linearGradient><linearGradient id="linearGradient59-8" x1="1097.109" x2="1144.297" y1="691.772" y2="745.195" gradientTransform="matrix(0.54492196,0,0,0.54492196,306.47158,-867.18209)" gradientUnits="userSpaceOnUse" xlink:href="#d"/><linearGradient id="e-2" x1="73.356" x2="118.607" y1="709.924" y2="773.999" gradientTransform="matrix(0.57110493,0.57110493,-0.57110493,0.57110493,1073.7861,81.213633)" gradientUnits="userSpaceOnUse"><stop id="stop26-9" offset="0%" stop-color="#FF52C1"/><stop id="stop28-2" offset="100%" stop-color="#9952FF"/></linearGradient></defs><path id="path33" fill="url(#a)" fill-rule="evenodd" stroke-width="1.102" d="M 834.817,0 H 429.40467 L 7.7758112,461.05044 v 192.30463 z"/><path id="path35" fill="url(#b)" fill-rule="evenodd" stroke-width="1.386" d="M 1325.5654,1197.5664 521.7347,1197.355 0,728.42332 V 532.83 Z"/><circle id="circle37" cx="704" cy="563" r="65.566" fill="none" fill-rule="evenodd" stroke="url(#c)" stroke-width="22.747"/><rect id="rect39" width="38" height="38" x="1265.629" y="-301.136" fill="url(#linearGradient59)" fill-rule="evenodd" opacity=".558" rx="3" transform="rotate(45)"/><rect id="rect41" width="56" height="56" x="950.067" y="-859.558" fill="url(#linearGradient61)" fill-rule="evenodd" opacity=".503" rx="3" transform="rotate(45)"/><rect id="rect43" width="32" height="32" x="689.872" y="-631.89" fill="url(#linearGradient63)" fill-rule="evenodd" opacity=".558" rx="3" transform="rotate(45)"/><rect id="rect45" width="32" height="32" x="613.505" y="-381.574" fill="url(#linearGradient65)" fill-rule="evenodd" opacity=".558" rx="3" transform="rotate(45)"/><rect id="rect47" width="17" height="17" x="1294.727" y="-454.683" fill="url(#linearGradient67)" fill-rule="evenodd" opacity=".387" rx="1" transform="rotate(45)"/><path id="path49" fill="url(#e)" fill-rule="evenodd" stroke-width="1.77" d="M 92.589094,911.16043 113.23752,890.512 a 8.8488828,8.8488828 0 0 1 12.51421,12.51421 l -20.64843,20.64843 20.64843,20.64843 a 8.8488828,8.8488828 0 0 1 -12.51421,12.51421 L 92.589094,936.18885 71.940657,956.83728 A 8.848881,8.848881 0 1 1 59.426452,944.32307 L 80.07489,923.67464 59.426452,903.02621 A 8.848881,8.848881 0 1 1 71.940657,890.512 Z" opacity=".211"/><rect id="rect41-8" width="56" height="56" x="922.247" y="586.849" fill="url(#linearGradient61-0)" fill-rule="evenodd" opacity=".503" rx="3" transform="rotate(45)"/><rect id="rect41-0" width="56" height="56" x="105.745" y="12.274" fill="url(#linearGradient61-07)" fill-rule="evenodd" opacity=".503" rx="3" transform="rotate(45)"/><rect id="rect47-9" width="17" height="17" x="529.373" y="204.971" fill="url(#linearGradient67-4)" fill-rule="evenodd" opacity=".387" rx="1" transform="rotate(45)"/><rect id="rect47-3" width="45.471" height="45.471" x="1290.402" y="108.261" fill="url(#linearGradient67-1)" fill-rule="evenodd" stroke-width="2.675" opacity=".387" rx="2.675" transform="rotate(45)"/><circle id="circle37-9" cx="1104.165" cy="974.501" r="29.121" fill="none" fill-rule="evenodd" stroke="url(#c-5)" stroke-width="10.103"/><circle id="circle37-9-1" cx="983.64" cy="301.894" r="39.06" fill="none" fill-rule="evenodd" stroke="url(#c-5-9)" stroke-width="13.552"/><rect id="rect39-6" width="20.707" height="20.707" x="899.821" y="-491.257" fill="url(#linearGradient59-8)" fill-rule="evenodd" stroke-width=".545" opacity=".558" rx="1.635" transform="rotate(45)"/><path id="path49-1" fill="url(#e-2)" fill-rule="evenodd" stroke-width=".808" d="m 703.7101,555.77556 9.42322,-9.42323 a 4.0383257,4.0383257 0 0 1 5.71106,5.71105 l -9.42323,9.42323 9.42323,9.42323 a 4.0383257,4.0383257 0 0 1 -5.71106,5.71105 l -9.42322,-9.42323 -9.42323,9.42323 a 4.0383229,4.0383229 0 1 1 -5.71105,-5.71105 l 9.42323,-9.42323 -9.42323,-9.42323 a 4.0383229,4.0383229 0 1 1 5.71105,-5.71105 z" opacity=".211"/></svg>